<mxfile host="app.diagrams.net" agent="Mozilla/5.0 (X11; Linux x86_64) AppleWebKit/537.36 (KHTML, like Gecko) Chrome/128.0.0.0 Safari/537.36" version="24.7.17">
  <diagram name="Page-1" id="KgoYQYOyyWXWBF0dz0mT">
    <mxGraphModel dx="690" dy="509" grid="1" gridSize="10" guides="1" tooltips="1" connect="1" arrows="1" fold="1" page="1" pageScale="1" pageWidth="850" pageHeight="1100" math="0" shadow="0">
      <root>
        <mxCell id="0" />
        <mxCell id="1" parent="0" />
        <mxCell id="fPppr7q9K9Kb0jlmJFAS-1" value="" style="rounded=0;whiteSpace=wrap;html=1;" parent="1" vertex="1">
          <mxGeometry x="420" y="600" width="120" height="90" as="geometry" />
        </mxCell>
        <mxCell id="fPppr7q9K9Kb0jlmJFAS-2" value="А2.1.4" style="rounded=0;whiteSpace=wrap;html=1;" parent="1" vertex="1">
          <mxGeometry x="420" y="660" width="60" height="30" as="geometry" />
        </mxCell>
        <mxCell id="fPppr7q9K9Kb0jlmJFAS-3" value="" style="rounded=0;whiteSpace=wrap;html=1;" parent="1" vertex="1">
          <mxGeometry x="480" y="660" width="60" height="30" as="geometry" />
        </mxCell>
        <mxCell id="fPppr7q9K9Kb0jlmJFAS-75" style="edgeStyle=orthogonalEdgeStyle;rounded=0;orthogonalLoop=1;jettySize=auto;html=1;exitX=1;exitY=0.5;exitDx=0;exitDy=0;entryX=0;entryY=0.75;entryDx=0;entryDy=0;" parent="1" source="fPppr7q9K9Kb0jlmJFAS-4" target="fPppr7q9K9Kb0jlmJFAS-70" edge="1">
          <mxGeometry relative="1" as="geometry" />
        </mxCell>
        <mxCell id="fPppr7q9K9Kb0jlmJFAS-4" value="Выбор нужного стиля перевода в форме" style="text;html=1;align=center;verticalAlign=middle;whiteSpace=wrap;rounded=0;" parent="1" vertex="1">
          <mxGeometry x="420" y="600" width="120" height="60" as="geometry" />
        </mxCell>
        <mxCell id="fPppr7q9K9Kb0jlmJFAS-5" value="" style="endArrow=none;html=1;rounded=0;exitX=0;exitY=0.25;exitDx=0;exitDy=0;entryX=0.125;entryY=0.02;entryDx=0;entryDy=0;entryPerimeter=0;" parent="1" source="fPppr7q9K9Kb0jlmJFAS-4" target="fPppr7q9K9Kb0jlmJFAS-4" edge="1">
          <mxGeometry width="50" height="50" relative="1" as="geometry">
            <mxPoint x="390" y="630" as="sourcePoint" />
            <mxPoint x="440" y="580" as="targetPoint" />
          </mxGeometry>
        </mxCell>
        <mxCell id="fPppr7q9K9Kb0jlmJFAS-11" value="" style="rounded=0;whiteSpace=wrap;html=1;" parent="1" vertex="1">
          <mxGeometry x="100" y="230" width="120" height="90" as="geometry" />
        </mxCell>
        <mxCell id="fPppr7q9K9Kb0jlmJFAS-13" value="" style="rounded=0;whiteSpace=wrap;html=1;" parent="1" vertex="1">
          <mxGeometry x="100" y="290" width="120" height="30" as="geometry" />
        </mxCell>
        <mxCell id="fPppr7q9K9Kb0jlmJFAS-14" value="Пользователь" style="text;html=1;align=center;verticalAlign=middle;whiteSpace=wrap;rounded=0;" parent="1" vertex="1">
          <mxGeometry x="100" y="230" width="120" height="60" as="geometry" />
        </mxCell>
        <mxCell id="fPppr7q9K9Kb0jlmJFAS-15" value="" style="endArrow=none;html=1;rounded=0;exitX=0;exitY=0.25;exitDx=0;exitDy=0;entryX=0.125;entryY=0.02;entryDx=0;entryDy=0;entryPerimeter=0;" parent="1" source="fPppr7q9K9Kb0jlmJFAS-14" target="fPppr7q9K9Kb0jlmJFAS-14" edge="1">
          <mxGeometry width="50" height="50" relative="1" as="geometry">
            <mxPoint x="70" y="260" as="sourcePoint" />
            <mxPoint x="120" y="210" as="targetPoint" />
          </mxGeometry>
        </mxCell>
        <mxCell id="fPppr7q9K9Kb0jlmJFAS-16" value="" style="rounded=0;whiteSpace=wrap;html=1;" parent="1" vertex="1">
          <mxGeometry x="420" y="730" width="120" height="90" as="geometry" />
        </mxCell>
        <mxCell id="fPppr7q9K9Kb0jlmJFAS-17" value="" style="rounded=0;whiteSpace=wrap;html=1;" parent="1" vertex="1">
          <mxGeometry x="420" y="790" width="120" height="30" as="geometry" />
        </mxCell>
        <mxCell id="fPppr7q9K9Kb0jlmJFAS-29" style="edgeStyle=orthogonalEdgeStyle;rounded=0;orthogonalLoop=1;jettySize=auto;html=1;exitX=0.5;exitY=0;exitDx=0;exitDy=0;entryX=0;entryY=1;entryDx=0;entryDy=0;startArrow=none;startFill=0;endArrow=none;endFill=0;dashed=1;" parent="1" source="fPppr7q9K9Kb0jlmJFAS-18" target="fPppr7q9K9Kb0jlmJFAS-3" edge="1">
          <mxGeometry relative="1" as="geometry" />
        </mxCell>
        <mxCell id="fPppr7q9K9Kb0jlmJFAS-18" value="Доступные стили перевода" style="text;html=1;align=center;verticalAlign=middle;whiteSpace=wrap;rounded=0;" parent="1" vertex="1">
          <mxGeometry x="420" y="730" width="120" height="60" as="geometry" />
        </mxCell>
        <mxCell id="fPppr7q9K9Kb0jlmJFAS-19" value="" style="endArrow=none;html=1;rounded=0;exitX=0;exitY=0.25;exitDx=0;exitDy=0;entryX=0.125;entryY=0.02;entryDx=0;entryDy=0;entryPerimeter=0;" parent="1" source="fPppr7q9K9Kb0jlmJFAS-18" target="fPppr7q9K9Kb0jlmJFAS-18" edge="1">
          <mxGeometry width="50" height="50" relative="1" as="geometry">
            <mxPoint x="390" y="760" as="sourcePoint" />
            <mxPoint x="440" y="710" as="targetPoint" />
          </mxGeometry>
        </mxCell>
        <mxCell id="fPppr7q9K9Kb0jlmJFAS-20" value="" style="rounded=0;whiteSpace=wrap;html=1;" parent="1" vertex="1">
          <mxGeometry x="420" y="120" width="120" height="90" as="geometry" />
        </mxCell>
        <mxCell id="fPppr7q9K9Kb0jlmJFAS-21" value="А2.1.2" style="rounded=0;whiteSpace=wrap;html=1;" parent="1" vertex="1">
          <mxGeometry x="420" y="180" width="60" height="30" as="geometry" />
        </mxCell>
        <mxCell id="fPppr7q9K9Kb0jlmJFAS-22" value="" style="rounded=0;whiteSpace=wrap;html=1;" parent="1" vertex="1">
          <mxGeometry x="480" y="180" width="60" height="30" as="geometry" />
        </mxCell>
        <mxCell id="fPppr7q9K9Kb0jlmJFAS-73" style="edgeStyle=orthogonalEdgeStyle;rounded=0;orthogonalLoop=1;jettySize=auto;html=1;exitX=1;exitY=0.5;exitDx=0;exitDy=0;entryX=0;entryY=0.25;entryDx=0;entryDy=0;" parent="1" source="fPppr7q9K9Kb0jlmJFAS-23" target="fPppr7q9K9Kb0jlmJFAS-70" edge="1">
          <mxGeometry relative="1" as="geometry">
            <mxPoint x="610" y="380" as="targetPoint" />
          </mxGeometry>
        </mxCell>
        <mxCell id="fPppr7q9K9Kb0jlmJFAS-23" value="Выбор нужной модели перевода в форме" style="text;html=1;align=center;verticalAlign=middle;whiteSpace=wrap;rounded=0;" parent="1" vertex="1">
          <mxGeometry x="420" y="120" width="120" height="60" as="geometry" />
        </mxCell>
        <mxCell id="fPppr7q9K9Kb0jlmJFAS-24" value="" style="endArrow=none;html=1;rounded=0;exitX=0;exitY=0.25;exitDx=0;exitDy=0;entryX=0.125;entryY=0.02;entryDx=0;entryDy=0;entryPerimeter=0;" parent="1" source="fPppr7q9K9Kb0jlmJFAS-23" target="fPppr7q9K9Kb0jlmJFAS-23" edge="1">
          <mxGeometry width="50" height="50" relative="1" as="geometry">
            <mxPoint x="390" y="150" as="sourcePoint" />
            <mxPoint x="440" y="100" as="targetPoint" />
          </mxGeometry>
        </mxCell>
        <mxCell id="fPppr7q9K9Kb0jlmJFAS-25" value="" style="rounded=0;whiteSpace=wrap;html=1;" parent="1" vertex="1">
          <mxGeometry x="420" y="250" width="120" height="90" as="geometry" />
        </mxCell>
        <mxCell id="fPppr7q9K9Kb0jlmJFAS-26" value="" style="rounded=0;whiteSpace=wrap;html=1;" parent="1" vertex="1">
          <mxGeometry x="420" y="310" width="120" height="30" as="geometry" />
        </mxCell>
        <mxCell id="fPppr7q9K9Kb0jlmJFAS-27" value="Доступные модели перевода" style="text;html=1;align=center;verticalAlign=middle;whiteSpace=wrap;rounded=0;" parent="1" vertex="1">
          <mxGeometry x="420" y="250" width="120" height="60" as="geometry" />
        </mxCell>
        <mxCell id="fPppr7q9K9Kb0jlmJFAS-28" value="" style="endArrow=none;html=1;rounded=0;exitX=0;exitY=0.25;exitDx=0;exitDy=0;entryX=0.125;entryY=0.02;entryDx=0;entryDy=0;entryPerimeter=0;" parent="1" source="fPppr7q9K9Kb0jlmJFAS-27" target="fPppr7q9K9Kb0jlmJFAS-27" edge="1">
          <mxGeometry width="50" height="50" relative="1" as="geometry">
            <mxPoint x="390" y="280" as="sourcePoint" />
            <mxPoint x="440" y="230" as="targetPoint" />
          </mxGeometry>
        </mxCell>
        <mxCell id="fPppr7q9K9Kb0jlmJFAS-30" style="edgeStyle=orthogonalEdgeStyle;rounded=0;orthogonalLoop=1;jettySize=auto;html=1;exitX=0.5;exitY=0;exitDx=0;exitDy=0;entryX=1;entryY=1;entryDx=0;entryDy=0;startArrow=none;startFill=0;endArrow=none;endFill=0;dashed=1;" parent="1" source="fPppr7q9K9Kb0jlmJFAS-27" target="fPppr7q9K9Kb0jlmJFAS-21" edge="1">
          <mxGeometry relative="1" as="geometry">
            <mxPoint x="250" y="260" as="sourcePoint" />
            <mxPoint x="250" y="220" as="targetPoint" />
          </mxGeometry>
        </mxCell>
        <mxCell id="fPppr7q9K9Kb0jlmJFAS-32" value="" style="rounded=0;whiteSpace=wrap;html=1;" parent="1" vertex="1">
          <mxGeometry x="420" y="360" width="120" height="90" as="geometry" />
        </mxCell>
        <mxCell id="fPppr7q9K9Kb0jlmJFAS-33" value="А2.1.3" style="rounded=0;whiteSpace=wrap;html=1;" parent="1" vertex="1">
          <mxGeometry x="420" y="420" width="60" height="30" as="geometry" />
        </mxCell>
        <mxCell id="fPppr7q9K9Kb0jlmJFAS-34" value="" style="rounded=0;whiteSpace=wrap;html=1;" parent="1" vertex="1">
          <mxGeometry x="480" y="420" width="60" height="30" as="geometry" />
        </mxCell>
        <mxCell id="fPppr7q9K9Kb0jlmJFAS-74" style="edgeStyle=orthogonalEdgeStyle;rounded=0;orthogonalLoop=1;jettySize=auto;html=1;exitX=1;exitY=0.5;exitDx=0;exitDy=0;entryX=0;entryY=0.5;entryDx=0;entryDy=0;" parent="1" source="fPppr7q9K9Kb0jlmJFAS-35" target="fPppr7q9K9Kb0jlmJFAS-70" edge="1">
          <mxGeometry relative="1" as="geometry" />
        </mxCell>
        <mxCell id="fPppr7q9K9Kb0jlmJFAS-35" value="Выбор начального и конечного языка перевода в форме" style="text;html=1;align=center;verticalAlign=middle;whiteSpace=wrap;rounded=0;" parent="1" vertex="1">
          <mxGeometry x="420" y="360" width="120" height="60" as="geometry" />
        </mxCell>
        <mxCell id="fPppr7q9K9Kb0jlmJFAS-36" value="" style="endArrow=none;html=1;rounded=0;exitX=0;exitY=0.25;exitDx=0;exitDy=0;entryX=0.125;entryY=0.02;entryDx=0;entryDy=0;entryPerimeter=0;" parent="1" source="fPppr7q9K9Kb0jlmJFAS-35" target="fPppr7q9K9Kb0jlmJFAS-35" edge="1">
          <mxGeometry width="50" height="50" relative="1" as="geometry">
            <mxPoint x="390" y="390" as="sourcePoint" />
            <mxPoint x="440" y="340" as="targetPoint" />
          </mxGeometry>
        </mxCell>
        <mxCell id="fPppr7q9K9Kb0jlmJFAS-37" value="" style="rounded=0;whiteSpace=wrap;html=1;" parent="1" vertex="1">
          <mxGeometry x="420" y="490" width="120" height="90" as="geometry" />
        </mxCell>
        <mxCell id="fPppr7q9K9Kb0jlmJFAS-38" value="" style="rounded=0;whiteSpace=wrap;html=1;" parent="1" vertex="1">
          <mxGeometry x="420" y="550" width="120" height="30" as="geometry" />
        </mxCell>
        <mxCell id="fPppr7q9K9Kb0jlmJFAS-39" value="Доступные языки" style="text;html=1;align=center;verticalAlign=middle;whiteSpace=wrap;rounded=0;" parent="1" vertex="1">
          <mxGeometry x="420" y="490" width="120" height="60" as="geometry" />
        </mxCell>
        <mxCell id="fPppr7q9K9Kb0jlmJFAS-40" value="" style="endArrow=none;html=1;rounded=0;exitX=0;exitY=0.25;exitDx=0;exitDy=0;entryX=0.125;entryY=0.02;entryDx=0;entryDy=0;entryPerimeter=0;" parent="1" source="fPppr7q9K9Kb0jlmJFAS-39" target="fPppr7q9K9Kb0jlmJFAS-39" edge="1">
          <mxGeometry width="50" height="50" relative="1" as="geometry">
            <mxPoint x="390" y="520" as="sourcePoint" />
            <mxPoint x="440" y="470" as="targetPoint" />
          </mxGeometry>
        </mxCell>
        <mxCell id="fPppr7q9K9Kb0jlmJFAS-41" style="edgeStyle=orthogonalEdgeStyle;rounded=0;orthogonalLoop=1;jettySize=auto;html=1;exitX=0.5;exitY=0;exitDx=0;exitDy=0;entryX=1;entryY=1;entryDx=0;entryDy=0;startArrow=none;startFill=0;endArrow=none;endFill=0;dashed=1;" parent="1" source="fPppr7q9K9Kb0jlmJFAS-39" target="fPppr7q9K9Kb0jlmJFAS-33" edge="1">
          <mxGeometry relative="1" as="geometry">
            <mxPoint x="250" y="500" as="sourcePoint" />
            <mxPoint x="250" y="460" as="targetPoint" />
          </mxGeometry>
        </mxCell>
        <mxCell id="fPppr7q9K9Kb0jlmJFAS-44" value="" style="rounded=0;whiteSpace=wrap;html=1;" parent="1" vertex="1">
          <mxGeometry x="730" y="360" width="120" height="90" as="geometry" />
        </mxCell>
        <mxCell id="fPppr7q9K9Kb0jlmJFAS-45" value="А2.1.5" style="rounded=0;whiteSpace=wrap;html=1;" parent="1" vertex="1">
          <mxGeometry x="730" y="420" width="60" height="30" as="geometry" />
        </mxCell>
        <mxCell id="fPppr7q9K9Kb0jlmJFAS-46" value="" style="rounded=0;whiteSpace=wrap;html=1;" parent="1" vertex="1">
          <mxGeometry x="790" y="420" width="60" height="30" as="geometry" />
        </mxCell>
        <mxCell id="fPppr7q9K9Kb0jlmJFAS-50" style="edgeStyle=orthogonalEdgeStyle;rounded=0;orthogonalLoop=1;jettySize=auto;html=1;exitX=1;exitY=0.5;exitDx=0;exitDy=0;endArrow=doubleBlock;endFill=1;" parent="1" source="fPppr7q9K9Kb0jlmJFAS-47" edge="1">
          <mxGeometry relative="1" as="geometry">
            <mxPoint x="950" y="389.7692307692308" as="targetPoint" />
          </mxGeometry>
        </mxCell>
        <mxCell id="fPppr7q9K9Kb0jlmJFAS-51" value="Объект настроек&lt;div&gt;переводчика&lt;/div&gt;" style="edgeLabel;html=1;align=center;verticalAlign=middle;resizable=0;points=[];" parent="fPppr7q9K9Kb0jlmJFAS-50" vertex="1" connectable="0">
          <mxGeometry x="-0.0798" y="1" relative="1" as="geometry">
            <mxPoint y="-19" as="offset" />
          </mxGeometry>
        </mxCell>
        <mxCell id="fPppr7q9K9Kb0jlmJFAS-47" value="Отправка формы" style="text;html=1;align=center;verticalAlign=middle;whiteSpace=wrap;rounded=0;" parent="1" vertex="1">
          <mxGeometry x="730" y="360" width="120" height="60" as="geometry" />
        </mxCell>
        <mxCell id="fPppr7q9K9Kb0jlmJFAS-48" value="" style="endArrow=none;html=1;rounded=0;exitX=0;exitY=0.25;exitDx=0;exitDy=0;entryX=0.125;entryY=0.02;entryDx=0;entryDy=0;entryPerimeter=0;" parent="1" source="fPppr7q9K9Kb0jlmJFAS-47" target="fPppr7q9K9Kb0jlmJFAS-47" edge="1">
          <mxGeometry width="50" height="50" relative="1" as="geometry">
            <mxPoint x="700" y="390" as="sourcePoint" />
            <mxPoint x="750" y="340" as="targetPoint" />
          </mxGeometry>
        </mxCell>
        <mxCell id="fPppr7q9K9Kb0jlmJFAS-52" value="" style="rounded=0;whiteSpace=wrap;html=1;" parent="1" vertex="1">
          <mxGeometry x="100" y="360" width="120" height="90" as="geometry" />
        </mxCell>
        <mxCell id="fPppr7q9K9Kb0jlmJFAS-53" value="А2.1.1" style="rounded=0;whiteSpace=wrap;html=1;" parent="1" vertex="1">
          <mxGeometry x="100" y="420" width="60" height="30" as="geometry" />
        </mxCell>
        <mxCell id="fPppr7q9K9Kb0jlmJFAS-54" value="" style="rounded=0;whiteSpace=wrap;html=1;" parent="1" vertex="1">
          <mxGeometry x="160" y="420" width="60" height="30" as="geometry" />
        </mxCell>
        <mxCell id="fPppr7q9K9Kb0jlmJFAS-68" style="edgeStyle=orthogonalEdgeStyle;rounded=0;orthogonalLoop=1;jettySize=auto;html=1;exitX=1;exitY=0.5;exitDx=0;exitDy=0;entryX=0;entryY=0.5;entryDx=0;entryDy=0;" parent="1" source="fPppr7q9K9Kb0jlmJFAS-55" target="fPppr7q9K9Kb0jlmJFAS-60" edge="1">
          <mxGeometry relative="1" as="geometry" />
        </mxCell>
        <mxCell id="fPppr7q9K9Kb0jlmJFAS-55" value="Открытие формы создания конфигурации настроек" style="text;html=1;align=center;verticalAlign=middle;whiteSpace=wrap;rounded=0;" parent="1" vertex="1">
          <mxGeometry x="100" y="360" width="120" height="60" as="geometry" />
        </mxCell>
        <mxCell id="fPppr7q9K9Kb0jlmJFAS-56" value="" style="endArrow=none;html=1;rounded=0;exitX=0;exitY=0.25;exitDx=0;exitDy=0;entryX=0.125;entryY=0.02;entryDx=0;entryDy=0;entryPerimeter=0;" parent="1" source="fPppr7q9K9Kb0jlmJFAS-55" target="fPppr7q9K9Kb0jlmJFAS-55" edge="1">
          <mxGeometry width="50" height="50" relative="1" as="geometry">
            <mxPoint x="70" y="390" as="sourcePoint" />
            <mxPoint x="120" y="340" as="targetPoint" />
          </mxGeometry>
        </mxCell>
        <mxCell id="fPppr7q9K9Kb0jlmJFAS-65" style="edgeStyle=orthogonalEdgeStyle;rounded=0;orthogonalLoop=1;jettySize=auto;html=1;exitX=1;exitY=0.25;exitDx=0;exitDy=0;entryX=0;entryY=0.5;entryDx=0;entryDy=0;" parent="1" source="fPppr7q9K9Kb0jlmJFAS-60" target="fPppr7q9K9Kb0jlmJFAS-23" edge="1">
          <mxGeometry relative="1" as="geometry" />
        </mxCell>
        <mxCell id="fPppr7q9K9Kb0jlmJFAS-66" style="edgeStyle=orthogonalEdgeStyle;rounded=0;orthogonalLoop=1;jettySize=auto;html=1;exitX=1;exitY=0.5;exitDx=0;exitDy=0;entryX=0;entryY=0.5;entryDx=0;entryDy=0;" parent="1" source="fPppr7q9K9Kb0jlmJFAS-60" target="fPppr7q9K9Kb0jlmJFAS-35" edge="1">
          <mxGeometry relative="1" as="geometry" />
        </mxCell>
        <mxCell id="fPppr7q9K9Kb0jlmJFAS-67" style="edgeStyle=orthogonalEdgeStyle;rounded=0;orthogonalLoop=1;jettySize=auto;html=1;exitX=1;exitY=0.75;exitDx=0;exitDy=0;entryX=0;entryY=0.5;entryDx=0;entryDy=0;" parent="1" source="fPppr7q9K9Kb0jlmJFAS-60" target="fPppr7q9K9Kb0jlmJFAS-4" edge="1">
          <mxGeometry relative="1" as="geometry" />
        </mxCell>
        <mxCell id="fPppr7q9K9Kb0jlmJFAS-60" value="&amp;amp;" style="rounded=0;whiteSpace=wrap;html=1;" parent="1" vertex="1">
          <mxGeometry x="280" y="370" width="50" height="40" as="geometry" />
        </mxCell>
        <mxCell id="fPppr7q9K9Kb0jlmJFAS-64" value="" style="endArrow=none;html=1;rounded=0;entryX=0.25;entryY=0;entryDx=0;entryDy=0;exitX=0.25;exitY=1;exitDx=0;exitDy=0;" parent="1" source="fPppr7q9K9Kb0jlmJFAS-60" target="fPppr7q9K9Kb0jlmJFAS-60" edge="1">
          <mxGeometry width="50" height="50" relative="1" as="geometry">
            <mxPoint x="280" y="490" as="sourcePoint" />
            <mxPoint x="330" y="440" as="targetPoint" />
          </mxGeometry>
        </mxCell>
        <mxCell id="fPppr7q9K9Kb0jlmJFAS-69" style="edgeStyle=orthogonalEdgeStyle;rounded=0;orthogonalLoop=1;jettySize=auto;html=1;exitX=0.5;exitY=0;exitDx=0;exitDy=0;entryX=0.5;entryY=1;entryDx=0;entryDy=0;startArrow=none;startFill=0;endArrow=none;endFill=0;dashed=1;" parent="1" source="fPppr7q9K9Kb0jlmJFAS-55" target="fPppr7q9K9Kb0jlmJFAS-13" edge="1">
          <mxGeometry relative="1" as="geometry">
            <mxPoint x="276" y="361" as="sourcePoint" />
            <mxPoint x="276" y="321" as="targetPoint" />
          </mxGeometry>
        </mxCell>
        <mxCell id="fPppr7q9K9Kb0jlmJFAS-76" style="edgeStyle=orthogonalEdgeStyle;rounded=0;orthogonalLoop=1;jettySize=auto;html=1;exitX=1;exitY=0.5;exitDx=0;exitDy=0;entryX=0;entryY=0.5;entryDx=0;entryDy=0;" parent="1" source="fPppr7q9K9Kb0jlmJFAS-70" target="fPppr7q9K9Kb0jlmJFAS-47" edge="1">
          <mxGeometry relative="1" as="geometry" />
        </mxCell>
        <mxCell id="fPppr7q9K9Kb0jlmJFAS-70" value="&amp;amp;" style="rounded=0;whiteSpace=wrap;html=1;" parent="1" vertex="1">
          <mxGeometry x="620" y="370" width="50" height="40" as="geometry" />
        </mxCell>
        <mxCell id="fPppr7q9K9Kb0jlmJFAS-71" value="" style="endArrow=none;html=1;rounded=0;entryX=0.25;entryY=0;entryDx=0;entryDy=0;exitX=0.25;exitY=1;exitDx=0;exitDy=0;" parent="1" source="fPppr7q9K9Kb0jlmJFAS-70" target="fPppr7q9K9Kb0jlmJFAS-70" edge="1">
          <mxGeometry width="50" height="50" relative="1" as="geometry">
            <mxPoint x="620" y="490" as="sourcePoint" />
            <mxPoint x="670" y="440" as="targetPoint" />
          </mxGeometry>
        </mxCell>
      </root>
    </mxGraphModel>
  </diagram>
</mxfile>
